<svg xmlns="http://www.w3.org/2000/svg" viewBox="0 0 512 512" width="100%" height="100%">
  <rect width="512" height="512" rx="112" fill="#0F172A"/>

  <circle cx="256" cy="280" r="140" fill="#38BDF8" opacity="0.06" filter="blur(24px)"/>

  <g transform="translate(0, 10)">
    <g transform="rotate(-12 256 250)">
      <rect x="190" y="180" width="132" height="140" rx="16" fill="#FBBF24" opacity="0.9"/>
      <rect x="210" y="200" width="40" height="12" rx="6" fill="#FFFFFF" opacity="0.8"/>
    </g>

    <g transform="rotate(8 256 270)">
      <rect x="190" y="210" width="132" height="140" rx="16" fill="#38BDF8" opacity="0.95"/>
      <rect x="210" y="230" width="60" height="12" rx="6" fill="#0EA5E9"/>
    </g>

    <g transform="rotate(-2 256 290)">
      <rect x="190" y="240" width="132" height="140" rx="16" fill="#FFFFFF"/>
      <rect x="210" y="264" width="70" height="8" rx="4" fill="#E2E8F0"/>
      <rect x="210" y="284" width="92" height="6" rx="3" fill="#F1F5F9"/>
      <rect x="210" y="298" width="50" height="6" rx="3" fill="#F1F5F9"/>
      <circle cx="224" cy="344" r="12" fill="#F43F5E"/>
      <circle cx="242" cy="344" r="12" fill="#38BDF8"/>
    </g>
  </g>

  <line x1="256" y1="0" x2="256" y2="100" stroke="#475569" stroke-width="16"/>

  <rect x="216" y="80" width="80" height="40" rx="12" fill="#334155"/>
  <rect x="228" y="92" width="56" height="16" rx="8" fill="#1E293B"/>
  <circle cx="256" cy="100" r="4" fill="#38BDF8"/>

  <g fill="none" stroke="#F43F5E" stroke-width="28" stroke-linecap="round" stroke-linejoin="round">
    <path d="M 224,110 L 144,180 L 144,360 L 210,390"/>
    <path d="M 288,110 L 368,180 L 368,360 L 302,390"/>
  </g>

  <g fill="none" stroke="#FB7185" stroke-width="12" stroke-linecap="round" stroke-linejoin="round">
    <path d="M 224,110 L 144,180 L 144,360 L 210,390"/>
    <path d="M 288,110 L 368,180 L 368,360 L 302,390"/>
  </g>

  <circle cx="144" cy="180" r="20" fill="#0F172A" stroke="#F43F5E" stroke-width="8"/>
  <circle cx="368" cy="180" r="20" fill="#0F172A" stroke="#F43F5E" stroke-width="8"/>

  <circle cx="144" cy="180" r="6" fill="#FB7185"/>
  <circle cx="368" cy="180" r="6" fill="#FB7185"/>

</svg>
